<svg version="1.2" xmlns="http://www.w3.org/2000/svg" viewBox="0 0 1024 1024" width="1024" height="1024">
	<style>
		.s0 { opacity: 1;fill: #84b1ff } 
	</style>
	<path id="Path 0" fill-rule="evenodd" class="s0" d="m866.5 83.5l7.5 2.13c4.13 1.17 11.1 3.78 15.5 5.81 4.4 2.04 10.7 5.63 14 7.99 3.3 2.36 8.85 7.16 12.34 10.68 3.49 3.51 8.3 9.31 10.68 12.89 2.38 3.58 5.77 9.88 7.54 14 1.76 4.13 4.03 11.55 5.06 16.5 1.79 8.67 1.85 21.83 1.86 357.5 0 237.04-0.33 350.58-1.04 355-0.57 3.58-2.36 10.33-3.98 15-1.61 4.67-5.08 12.07-7.7 16.42-2.62 4.36-8.36 11.6-12.76 16.1-4.4 4.5-10.92 10.13-14.5 12.51-3.58 2.39-9.88 5.86-14 7.72-4.12 1.86-11.1 4.36-23.5 7.75h-351.5c-327.17 0-351.98-0.12-358.5-1.7-3.85-0.93-10.38-3.12-14.5-4.85-4.12-1.74-11.1-5.53-15.5-8.43-4.43-2.92-11.57-9.05-16-13.73-4.4-4.64-9.91-11.78-12.24-15.87-2.34-4.08-5.35-10.57-6.71-14.42-1.35-3.85-3.16-11.05-4.01-16-1.4-8.05-1.53-45.71-1.28-358.5 0.28-337.95 0.35-349.73 2.16-356.5 1.03-3.85 3.08-9.93 4.55-13.5 1.46-3.57 4.84-9.88 7.5-14 2.66-4.13 7.35-10.14 10.43-13.37 3.08-3.22 8.3-7.79 11.6-10.15 3.3-2.36 9.15-5.85 13-7.76 3.85-1.91 9.93-4.42 13.5-5.59 3.57-1.18 9.2-2.53 12.5-3.02 3.39-0.49 158.72-0.82 708-0.61zm-631.36 134.79c-2.95 1.76-6.95 5.01-8.88 7.21-1.93 2.2-4.92 6.93-6.63 10.5l-3.13 6.5v337c4.03 8.52 7.4 13.41 10.1 16.35 3.02 3.3 7.2 6.47 10.9 8.26 3.3 1.61 8.7 3.36 12 3.9 3.81 0.62 99.25 0.97 262 0.96 140.8 0 258.7-0.39 262-0.86 3.3-0.47 8.7-2.14 12-3.72 3.3-1.58 8.25-5.15 11-7.93 2.75-2.78 6.35-7.73 8-11.01l3-5.95v-338.04c-5.09-10.42-8.33-14.83-11.42-17.71-2.79-2.61-8.12-6.21-11.83-8l-6.75-3.25c-491.24-0.33-526.73-0.16-531.5 1.11-3.02 0.81-7.91 2.91-10.86 4.68zm150.36 57.83c6.05-0.06 13.93 0.37 17.5 0.96 3.57 0.58 10.32 2.5 15 4.26 4.68 1.76 11.19 5 14.47 7.18 3.28 2.19 8.63 6.46 11.89 9.48 3.25 3.02 7.83 8.2 10.16 11.5 2.33 3.3 5.6 8.7 7.25 12 1.65 3.3 4.01 9.15 5.24 13 1.74 5.43 2.36 10.26 2.75 21.5 0.41 11.46 0.15 16.18-1.22 22.5-0.95 4.4-3.64 12.05-5.98 17-2.34 4.95-6.46 11.89-9.16 15.42-2.69 3.53-7.15 8.31-9.9 10.63-2.75 2.31-7.7 5.92-11 8.01-3.3 2.09-8.48 4.79-17 8.21l5.5 1.17c3.02 0.64 8.88 2.3 13 3.69 4.13 1.39 11.32 4.5 16 6.92 4.68 2.42 12.1 7.27 16.5 10.78 4.4 3.52 10.07 8.82 12.61 11.78 2.54 2.97 6.94 8.99 9.8 13.39 2.85 4.4 6.56 11.6 8.25 16 1.68 4.4 3.68 11.04 4.45 14.75 0.76 3.71 1.48 10.24 1.59 14.5 0.15 5.43-0.26 8.65-1.36 10.75-0.86 1.65-3.2 3.79-5.2 4.75-3.4 1.63-10.72 1.75-109.14 1.75-88.64 0-105.94-0.22-108.25-1.4-1.51-0.78-3.87-2.62-5.25-4.1-2.34-2.52-2.49-3.29-2.3-12.34 0.14-6.94 0.93-12.2 2.79-18.66 1.42-4.95 4.06-12.15 5.86-16 1.8-3.85 5.24-9.93 7.64-13.5 2.4-3.57 7.77-9.91 11.93-14.08 4.17-4.16 10.28-9.4 13.58-11.64 3.3-2.24 9.82-5.93 14.5-8.21 4.68-2.28 12.1-5.21 16.5-6.52 4.4-1.3 9.57-2.76 15-4.11l-5-1.86c-2.75-1.03-8.15-3.7-12-5.94-3.85-2.24-10.09-7.01-13.86-10.61-3.77-3.59-8.8-9.46-11.17-13.03-2.37-3.57-5.67-9.88-7.34-14-1.66-4.13-3.72-10.76-4.58-14.75-0.85-3.99-1.53-11.86-1.52-17.5 0.02-5.64 0.65-13.63 1.4-17.75 0.74-4.13 2.55-10.65 4.01-14.5 1.46-3.85 3.71-8.8 5-11 1.29-2.2 4.36-6.7 6.82-10 2.47-3.3 7.58-8.53 11.36-11.63 3.79-3.09 9.36-7.01 12.38-8.7 3.02-1.69 8.54-4.22 12.25-5.62 3.71-1.4 9.11-2.95 12-3.43 2.89-0.49 10.2-0.94 16.25-1zm254.25 40.9c84.88-0.02 91.5 0.1 94.9 1.73 2 0.96 4.59 3.1 5.75 4.75 1.53 2.19 2.1 4.53 2.1 8.68 0 4.16-0.55 6.42-2.07 8.5-1.14 1.55-3.62 3.61-5.5 4.57-3.19 1.63-9.82 1.75-95.43 1.75-87.17 0.01-92.18-0.09-95.5-1.82-2.2-1.15-4.34-3.47-5.76-6.25-1.24-2.44-2.24-5.78-2.22-7.43 0.03-1.65 1.04-4.76 2.26-6.9 1.43-2.51 3.64-4.55 6.22-5.73 3.78-1.73 9.03-1.83 95.25-1.85zm90.75 77.94l4.37 2.27c2.61 1.35 5.16 3.69 6.32 5.77 1.34 2.43 1.82 4.88 1.57 8-0.2 2.48-1.28 5.85-2.41 7.5-1.13 1.65-3.7 3.79-5.7 4.75-3.4 1.63-10.06 1.75-187.15 1.72l-3.9-2.24c-2.14-1.22-4.73-3.8-5.75-5.73-1.02-1.93-1.84-5.07-1.82-7 0.02-1.93 1.03-5.21 2.25-7.29 1.33-2.26 3.83-4.58 6.22-5.75 3.88-1.9 6.71-1.96 186-2zm-184.14 77.04l118.14-0.06 3.5 2.3c1.92 1.27 4.31 3.87 5.3 5.78 1.27 2.45 1.66 4.81 1.32 7.98-0.28 2.48-1.37 5.62-2.43 7-1.06 1.37-3.15 3.4-4.63 4.5-2.62 1.94-4.5 2.01-118.06 2.55l-4.44-2.27c-2.44-1.26-5.28-3.41-6.31-4.78-1.03-1.38-2.09-4.52-2.37-7-0.34-3.17 0.05-5.53 1.32-7.98 0.99-1.91 3.34-4.5 5.23-5.75z"/>
</svg>